<svg xmlns="http://www.w3.org/2000/svg" aria-label="We The Collective" class="navigation_Logo__uSjj7" viewBox="28 43.38 293.17 31.84"><g fill="white" fill-rule="evenodd"><path d="M321.107 57.207c-.003 0-.253-.004-.638-.074a1.87 1.87 0 0 1-1.053-.587c-.372-.43-.56-1.058-.56-1.86V48.61c0-3.27-2.31-5.225-4.545-5.225h-2.748a.059.059 0 0 0-.061.061v4.248a.06.06 0 0 0 .061.063h1.626c.433.004.732.123.912.364.201.268.296.718.296 1.41v5.887c0 1.738.607 3.115 1.712 3.885-1.105.769-1.712 2.144-1.712 3.884v5.886c0 .693-.095 1.143-.296 1.41-.18.24-.478.361-.91.365h-1.628a.06.06 0 0 0-.061.061v4.248c0 .037.026.063.061.063h2.748c2.235 0 4.545-1.956 4.545-5.224v-6.076c0-.804.188-1.428.56-1.862.25-.289.643-.509 1.053-.585.385-.071.635-.076.638-.076a.062.062 0 0 0 .06-.06v-4.069a.064.064 0 0 0-.06-.062" class="navigation_Logo__closing__vZPgB"></path><g class="navigation_Logo__collective__fCDoQ"><path d="M183.053 52.199c2.558 0 4.754.901 6.53 2.675 1.775 1.778 2.677 3.964 2.677 6.499 0 2.555-.902 4.754-2.677 6.531-1.75 1.753-3.948 2.64-6.53 2.64-2.584 0-4.78-.887-6.53-2.64-1.755-1.754-2.646-3.95-2.646-6.531 0-2.558.89-4.745 2.646-6.499 1.774-1.774 3.97-2.675 6.53-2.675zm0 4.634c-1.27 0-2.341.43-3.19 1.28-.827.872-1.247 1.968-1.247 3.26 0 1.292.42 2.388 1.25 3.261.846.848 1.918 1.278 3.187 1.278 1.266 0 2.338-.43 3.19-1.28.851-.851 1.28-1.946 1.28-3.26 0-1.314-.429-2.408-1.28-3.259-.852-.85-1.924-1.28-3.19-1.28zm-14.422 6.854a3.576 3.576 0 0 1-1.484 1.582c-.663.382-1.435.575-2.287.575-1.269 0-2.33-.419-3.153-1.242-.83-.875-1.25-1.96-1.25-3.23 0-1.314.42-2.404 1.248-3.242.827-.838 1.886-1.263 3.155-1.263.83 0 1.586.2 2.25.59a3.734 3.734 0 0 1 1.487 1.6l.079.165 4.08-2.39-.073-.141c-.717-1.364-1.784-2.468-3.168-3.276-1.386-.805-2.94-1.216-4.62-1.216-2.606 0-4.813.889-6.567 2.643-1.729 1.754-2.608 3.95-2.608 6.53s.88 4.777 2.608 6.532c1.75 1.753 3.96 2.64 6.566 2.64a9.105 9.105 0 0 0 4.603-1.215 8.51 8.51 0 0 0 3.253-3.305l.078-.145-4.118-2.355-.08.163zM194.339 70.069h4.739V44.833h-4.739zM202.004 70.069h4.738V44.833h-4.738zM264.454 45.206c-.771 0-1.447.293-2.013.869-.563.577-.852 1.258-.852 2.028s.29 1.446.853 2.012c.563.563 1.24.85 2.012.85a2.8 2.8 0 0 0 2.045-.85c.566-.566.85-1.242.85-2.012 0-.769-.284-1.45-.848-2.028-.566-.576-1.253-.87-2.047-.87zm-9.08 2.636-4.736 1.435v3.4h-2.968v4.566h2.968v6.927c0 2.41.662 4.105 1.965 5.032.939.668 2.35 1.005 4.194 1.005.692 0 1.46-.046 2.283-.141l.148-.016v-4.318l-.177.009c-.476.028-.91.04-1.298.04-.29 0-.556-.008-.798-.023-.528-.031-.926-.169-1.193-.416-.258-.24-.388-.633-.388-1.172v-6.927h3.854v-4.566h-3.854v-4.835zm-13.29 15.844a3.57 3.57 0 0 1-1.484 1.583c-.664.382-1.435.575-2.289.575-1.267 0-2.328-.418-3.152-1.242-.83-.875-1.25-1.96-1.25-3.23 0-1.313.42-2.403 1.249-3.243.826-.838 1.886-1.262 3.153-1.262.83 0 1.587.199 2.25.589a3.72 3.72 0 0 1 1.487 1.602l.08.163 4.081-2.39-.075-.14c-.717-1.365-1.784-2.468-3.166-3.275-1.387-.807-2.942-1.217-4.621-1.217-2.605 0-4.816.89-6.568 2.642-1.729 1.754-2.607 3.952-2.607 6.531 0 2.58.878 4.777 2.608 6.533 1.75 1.75 3.96 2.64 6.567 2.64a9.105 9.105 0 0 0 4.602-1.215 8.538 8.538 0 0 0 3.253-3.306l.078-.144-4.119-2.355-.078.161zM218.373 52.2c2.562 0 4.679.89 6.295 2.648 1.66 1.75 2.503 3.946 2.503 6.525 0 .488-.06 1.106-.173 1.833l-.022.144h-12.78c.597 1.931 2.097 2.87 4.586 2.87 1.62 0 2.859-.55 3.687-1.64l.09-.117 3.832 2.212-.104.149c-1.705 2.468-4.254 3.722-7.573 3.722-2.853 0-5.177-.876-6.907-2.608-1.73-1.731-2.609-3.94-2.609-6.565 0-2.58.868-4.776 2.574-6.528 1.684-1.754 3.906-2.645 6.602-2.645zm0 4.292c-1.14 0-2.09.294-2.831.868-.69.539-1.167 1.292-1.424 2.24h8.27c-.254-.97-.726-1.73-1.405-2.255-.73-.565-1.608-.853-2.61-.853zM262.013 70.069h4.736V52.676h-4.736zM277.796 64.275l-4.005-11.599h-5.206l6.608 17.393h5.244l6.606-17.393h-5.203zM296.22 52.198c2.56 0 4.677.89 6.297 2.649 1.659 1.748 2.5 3.945 2.5 6.525 0 .488-.059 1.105-.172 1.834l-.021.143h-12.782c.597 1.931 2.099 2.87 4.587 2.87 1.618 0 2.857-.552 3.686-1.64l.09-.117 3.833 2.21-.103.151c-1.706 2.469-4.254 3.722-7.574 3.722-2.853 0-5.178-.876-6.907-2.607-1.73-1.733-2.609-3.94-2.609-6.566 0-2.58.867-4.777 2.572-6.528 1.686-1.755 3.907-2.646 6.604-2.646Zm0 4.294c-1.14 0-2.091.292-2.832.868-.689.537-1.167 1.291-1.423 2.24h8.27c-.254-.971-.727-1.731-1.406-2.257-.729-.565-1.606-.851-2.609-.851Z"></path></g><path d="M137.712 52.198c2.56 0 4.68.89 6.296 2.65 1.66 1.748 2.502 3.944 2.502 6.525 0 .486-.06 1.104-.174 1.833l-.021.142h-12.78c.597 1.933 2.1 2.871 4.587 2.871 1.618 0 2.858-.551 3.686-1.642l.09-.116 3.832 2.212-.103.149c-1.707 2.47-4.255 3.722-7.573 3.722-2.853 0-5.177-.876-6.906-2.606-1.733-1.733-2.609-3.942-2.609-6.565 0-2.581.865-4.777 2.572-6.529 1.686-1.755 3.907-2.646 6.6-2.646zm0 4.294c-1.137 0-2.092.292-2.832.868-.688.537-1.167 1.292-1.423 2.24h8.27c-.253-.971-.725-1.731-1.406-2.257-.727-.565-1.607-.851-2.61-.851zm-17.973-4.294c-2.176 0-3.827.687-4.915 2.04v-8.385h-4.737v24.216h4.737v-9.381c0-1.335.32-2.357.962-3.038.634-.679 1.517-1.022 2.622-1.022.994 0 1.786.292 2.353.868.57.581.857 1.415.857 2.476v10.097h4.736V59.43c0-2.218-.637-4.002-1.889-5.302-1.212-1.28-2.8-1.929-4.726-1.929zm-16.294-4.356-4.736 1.434v3.4H95.74v4.566h2.97v6.927c0 2.412.66 4.105 1.965 5.032.938.668 2.35 1.006 4.194 1.006.692 0 1.462-.047 2.284-.14l.148-.018v-4.317l-.178.01c-.477.026-.908.038-1.297.038-.29 0-.557-.007-.8-.022-.526-.032-.927-.17-1.192-.415-.258-.24-.389-.635-.389-1.174v-6.927h3.856v-4.566h-3.856v-4.834z" class="navigation_Logo__the__vCbOL"></path><path d="M80.661 57.207c.003 0 .256-.004.637-.074.41-.075.805-.296 1.055-.587.372-.43.56-1.058.56-1.86V48.61c0-3.27 2.31-5.225 4.543-5.225h2.75a.06.06 0 0 1 .06.061v4.248a.062.062 0 0 1-.06.063h-1.628c-.433.004-.73.123-.912.364-.201.268-.295.718-.295 1.41v5.887c0 1.738-.607 3.115-1.713 3.885 1.106.769 1.713 2.144 1.713 3.884v5.886c0 .693.094 1.143.295 1.41.18.24.478.361.912.365h1.628c.034 0 .06.029.06.061v4.248a.06.06 0 0 1-.06.063h-2.75c-2.233 0-4.543-1.956-4.543-5.224v-6.076c0-.804-.188-1.428-.56-1.862a1.88 1.88 0 0 0-1.055-.585 4.207 4.207 0 0 0-.637-.076.062.062 0 0 1-.06-.06v-4.069c0-.032.028-.06.06-.062M46.167 62.742l-2.975-10.066h-4.411l-2.974 10.035-2.777-10.035H28l5.531 17.392h4.443l3.013-9.925 3.015 9.925h4.441l5.53-17.392h-5.03zM63.147 52.198c2.562 0 4.679.89 6.295 2.649 1.66 1.748 2.503 3.945 2.503 6.526 0 .486-.06 1.104-.173 1.833l-.023.142H58.97c.599 1.932 2.097 2.871 4.587 2.871 1.618 0 2.858-.551 3.687-1.642l.09-.116 3.83 2.212-.101.149c-1.708 2.47-4.254 3.722-7.575 3.722-2.852 0-5.177-.876-6.906-2.606-1.73-1.733-2.61-3.942-2.61-6.565 0-2.581.87-4.778 2.574-6.529 1.684-1.755 3.907-2.646 6.602-2.646Zm0 4.294c-1.14 0-2.092.292-2.832.868-.688.537-1.167 1.291-1.424 2.24h8.273c-.257-.971-.73-1.731-1.408-2.257-.73-.565-1.605-.851-2.61-.851Z"></path></g></svg>